<svg xmlns="http://www.w3.org/2000/svg" viewBox="0 0 1920 1080" width="1920" height="1080" preserveAspectRatio="xMidYMid slice"><rect x="1883.0" y="224" width="18" height="2" fill="#e0f2fe" opacity="0.32" transform="rotate(0 1892 225)" /><rect x="1883.0" y="224" width="18" height="2" fill="#e0f2fe" opacity="0.32" transform="rotate(45 1892 225)" /><rect x="1883.0" y="224" width="18" height="2" fill="#e0f2fe" opacity="0.32" transform="rotate(90 1892 225)" /><rect x="1883.0" y="224" width="18" height="2" fill="#e0f2fe" opacity="0.32" transform="rotate(135 1892 225)" />
<rect x="106.0" y="485" width="28" height="2" fill="#bae6fd" opacity="0.38" transform="rotate(0 120 486)" /><rect x="106.0" y="485" width="28" height="2" fill="#bae6fd" opacity="0.38" transform="rotate(45 120 486)" /><rect x="106.0" y="485" width="28" height="2" fill="#bae6fd" opacity="0.38" transform="rotate(90 120 486)" /><rect x="106.0" y="485" width="28" height="2" fill="#bae6fd" opacity="0.38" transform="rotate(135 120 486)" />
<rect x="121.5" y="913" width="11" height="2" fill="#bae6fd" opacity="0.23" transform="rotate(0 127 914)" /><rect x="121.5" y="913" width="11" height="2" fill="#bae6fd" opacity="0.23" transform="rotate(45 127 914)" /><rect x="121.5" y="913" width="11" height="2" fill="#bae6fd" opacity="0.23" transform="rotate(90 127 914)" /><rect x="121.5" y="913" width="11" height="2" fill="#bae6fd" opacity="0.23" transform="rotate(135 127 914)" />
<rect x="1898.5" y="147" width="21" height="2" fill="#bae6fd" opacity="0.20" transform="rotate(0 1909 148)" /><rect x="1898.5" y="147" width="21" height="2" fill="#bae6fd" opacity="0.20" transform="rotate(45 1909 148)" /><rect x="1898.5" y="147" width="21" height="2" fill="#bae6fd" opacity="0.20" transform="rotate(90 1909 148)" /><rect x="1898.5" y="147" width="21" height="2" fill="#bae6fd" opacity="0.20" transform="rotate(135 1909 148)" />
<rect x="1494.0" y="1002" width="16" height="2" fill="#bae6fd" opacity="0.24" transform="rotate(0 1502 1003)" /><rect x="1494.0" y="1002" width="16" height="2" fill="#bae6fd" opacity="0.24" transform="rotate(45 1502 1003)" /><rect x="1494.0" y="1002" width="16" height="2" fill="#bae6fd" opacity="0.24" transform="rotate(90 1502 1003)" /><rect x="1494.0" y="1002" width="16" height="2" fill="#bae6fd" opacity="0.24" transform="rotate(135 1502 1003)" />
<rect x="1638.5" y="662" width="27" height="2" fill="#ffffff" opacity="0.33" transform="rotate(0 1652 663)" /><rect x="1638.5" y="662" width="27" height="2" fill="#ffffff" opacity="0.33" transform="rotate(45 1652 663)" /><rect x="1638.5" y="662" width="27" height="2" fill="#ffffff" opacity="0.33" transform="rotate(90 1652 663)" /><rect x="1638.5" y="662" width="27" height="2" fill="#ffffff" opacity="0.33" transform="rotate(135 1652 663)" />
<rect x="1756.0" y="94" width="26" height="2" fill="#e0f2fe" opacity="0.43" transform="rotate(0 1769 95)" /><rect x="1756.0" y="94" width="26" height="2" fill="#e0f2fe" opacity="0.43" transform="rotate(45 1769 95)" /><rect x="1756.0" y="94" width="26" height="2" fill="#e0f2fe" opacity="0.43" transform="rotate(90 1769 95)" /><rect x="1756.0" y="94" width="26" height="2" fill="#e0f2fe" opacity="0.43" transform="rotate(135 1769 95)" />
<rect x="536.5" y="443" width="11" height="2" fill="#e0f2fe" opacity="0.40" transform="rotate(0 542 444)" /><rect x="536.5" y="443" width="11" height="2" fill="#e0f2fe" opacity="0.40" transform="rotate(45 542 444)" /><rect x="536.5" y="443" width="11" height="2" fill="#e0f2fe" opacity="0.40" transform="rotate(90 542 444)" /><rect x="536.5" y="443" width="11" height="2" fill="#e0f2fe" opacity="0.40" transform="rotate(135 542 444)" />
<rect x="660.0" y="766" width="30" height="2" fill="#bae6fd" opacity="0.43" transform="rotate(0 675 767)" /><rect x="660.0" y="766" width="30" height="2" fill="#bae6fd" opacity="0.43" transform="rotate(45 675 767)" /><rect x="660.0" y="766" width="30" height="2" fill="#bae6fd" opacity="0.43" transform="rotate(90 675 767)" /><rect x="660.0" y="766" width="30" height="2" fill="#bae6fd" opacity="0.43" transform="rotate(135 675 767)" />
<rect x="1141.0" y="717" width="24" height="2" fill="#e0f2fe" opacity="0.37" transform="rotate(0 1153 718)" /><rect x="1141.0" y="717" width="24" height="2" fill="#e0f2fe" opacity="0.37" transform="rotate(45 1153 718)" /><rect x="1141.0" y="717" width="24" height="2" fill="#e0f2fe" opacity="0.37" transform="rotate(90 1153 718)" /><rect x="1141.0" y="717" width="24" height="2" fill="#e0f2fe" opacity="0.37" transform="rotate(135 1153 718)" />
<rect x="1375.0" y="210" width="12" height="2" fill="#ffffff" opacity="0.32" transform="rotate(0 1381 211)" /><rect x="1375.0" y="210" width="12" height="2" fill="#ffffff" opacity="0.32" transform="rotate(45 1381 211)" /><rect x="1375.0" y="210" width="12" height="2" fill="#ffffff" opacity="0.32" transform="rotate(90 1381 211)" /><rect x="1375.0" y="210" width="12" height="2" fill="#ffffff" opacity="0.32" transform="rotate(135 1381 211)" />
<rect x="299.0" y="829" width="24" height="2" fill="#bae6fd" opacity="0.24" transform="rotate(0 311 830)" /><rect x="299.0" y="829" width="24" height="2" fill="#bae6fd" opacity="0.24" transform="rotate(45 311 830)" /><rect x="299.0" y="829" width="24" height="2" fill="#bae6fd" opacity="0.24" transform="rotate(90 311 830)" /><rect x="299.0" y="829" width="24" height="2" fill="#bae6fd" opacity="0.24" transform="rotate(135 311 830)" />
<rect x="476.5" y="433" width="29" height="2" fill="#bae6fd" opacity="0.27" transform="rotate(0 491 434)" /><rect x="476.5" y="433" width="29" height="2" fill="#bae6fd" opacity="0.27" transform="rotate(45 491 434)" /><rect x="476.5" y="433" width="29" height="2" fill="#bae6fd" opacity="0.27" transform="rotate(90 491 434)" /><rect x="476.5" y="433" width="29" height="2" fill="#bae6fd" opacity="0.27" transform="rotate(135 491 434)" />
<rect x="92.0" y="433" width="14" height="2" fill="#bae6fd" opacity="0.38" transform="rotate(0 99 434)" /><rect x="92.0" y="433" width="14" height="2" fill="#bae6fd" opacity="0.38" transform="rotate(45 99 434)" /><rect x="92.0" y="433" width="14" height="2" fill="#bae6fd" opacity="0.38" transform="rotate(90 99 434)" /><rect x="92.0" y="433" width="14" height="2" fill="#bae6fd" opacity="0.38" transform="rotate(135 99 434)" />
<rect x="248.0" y="0" width="10" height="2" fill="#bae6fd" opacity="0.39" transform="rotate(0 253 1)" /><rect x="248.0" y="0" width="10" height="2" fill="#bae6fd" opacity="0.39" transform="rotate(45 253 1)" /><rect x="248.0" y="0" width="10" height="2" fill="#bae6fd" opacity="0.39" transform="rotate(90 253 1)" /><rect x="248.0" y="0" width="10" height="2" fill="#bae6fd" opacity="0.39" transform="rotate(135 253 1)" />
<rect x="12.5" y="550" width="13" height="2" fill="#bae6fd" opacity="0.35" transform="rotate(0 19 551)" /><rect x="12.5" y="550" width="13" height="2" fill="#bae6fd" opacity="0.35" transform="rotate(45 19 551)" /><rect x="12.5" y="550" width="13" height="2" fill="#bae6fd" opacity="0.35" transform="rotate(90 19 551)" /><rect x="12.5" y="550" width="13" height="2" fill="#bae6fd" opacity="0.35" transform="rotate(135 19 551)" />
<rect x="1632.5" y="965" width="29" height="2" fill="#ffffff" opacity="0.32" transform="rotate(0 1647 966)" /><rect x="1632.5" y="965" width="29" height="2" fill="#ffffff" opacity="0.32" transform="rotate(45 1647 966)" /><rect x="1632.5" y="965" width="29" height="2" fill="#ffffff" opacity="0.32" transform="rotate(90 1647 966)" /><rect x="1632.5" y="965" width="29" height="2" fill="#ffffff" opacity="0.32" transform="rotate(135 1647 966)" />
<rect x="137.0" y="238" width="30" height="2" fill="#e0f2fe" opacity="0.31" transform="rotate(0 152 239)" /><rect x="137.0" y="238" width="30" height="2" fill="#e0f2fe" opacity="0.31" transform="rotate(45 152 239)" /><rect x="137.0" y="238" width="30" height="2" fill="#e0f2fe" opacity="0.31" transform="rotate(90 152 239)" /><rect x="137.0" y="238" width="30" height="2" fill="#e0f2fe" opacity="0.31" transform="rotate(135 152 239)" />
<rect x="1206.0" y="979" width="14" height="2" fill="#e0f2fe" opacity="0.39" transform="rotate(0 1213 980)" /><rect x="1206.0" y="979" width="14" height="2" fill="#e0f2fe" opacity="0.39" transform="rotate(45 1213 980)" /><rect x="1206.0" y="979" width="14" height="2" fill="#e0f2fe" opacity="0.39" transform="rotate(90 1213 980)" /><rect x="1206.0" y="979" width="14" height="2" fill="#e0f2fe" opacity="0.39" transform="rotate(135 1213 980)" />
<rect x="429.0" y="1060" width="22" height="2" fill="#bae6fd" opacity="0.24" transform="rotate(0 440 1061)" /><rect x="429.0" y="1060" width="22" height="2" fill="#bae6fd" opacity="0.24" transform="rotate(45 440 1061)" /><rect x="429.0" y="1060" width="22" height="2" fill="#bae6fd" opacity="0.24" transform="rotate(90 440 1061)" /><rect x="429.0" y="1060" width="22" height="2" fill="#bae6fd" opacity="0.24" transform="rotate(135 440 1061)" />
<rect x="991.0" y="720" width="18" height="2" fill="#e0f2fe" opacity="0.49" transform="rotate(0 1000 721)" /><rect x="991.0" y="720" width="18" height="2" fill="#e0f2fe" opacity="0.49" transform="rotate(45 1000 721)" /><rect x="991.0" y="720" width="18" height="2" fill="#e0f2fe" opacity="0.49" transform="rotate(90 1000 721)" /><rect x="991.0" y="720" width="18" height="2" fill="#e0f2fe" opacity="0.49" transform="rotate(135 1000 721)" />
<rect x="1186.0" y="1044" width="24" height="2" fill="#e0f2fe" opacity="0.25" transform="rotate(0 1198 1045)" /><rect x="1186.0" y="1044" width="24" height="2" fill="#e0f2fe" opacity="0.25" transform="rotate(45 1198 1045)" /><rect x="1186.0" y="1044" width="24" height="2" fill="#e0f2fe" opacity="0.25" transform="rotate(90 1198 1045)" /><rect x="1186.0" y="1044" width="24" height="2" fill="#e0f2fe" opacity="0.25" transform="rotate(135 1198 1045)" />
<rect x="131.0" y="851" width="26" height="2" fill="#ffffff" opacity="0.35" transform="rotate(0 144 852)" /><rect x="131.0" y="851" width="26" height="2" fill="#ffffff" opacity="0.35" transform="rotate(45 144 852)" /><rect x="131.0" y="851" width="26" height="2" fill="#ffffff" opacity="0.35" transform="rotate(90 144 852)" /><rect x="131.0" y="851" width="26" height="2" fill="#ffffff" opacity="0.35" transform="rotate(135 144 852)" />
<rect x="513.0" y="475" width="26" height="2" fill="#bae6fd" opacity="0.43" transform="rotate(0 526 476)" /><rect x="513.0" y="475" width="26" height="2" fill="#bae6fd" opacity="0.43" transform="rotate(45 526 476)" /><rect x="513.0" y="475" width="26" height="2" fill="#bae6fd" opacity="0.43" transform="rotate(90 526 476)" /><rect x="513.0" y="475" width="26" height="2" fill="#bae6fd" opacity="0.43" transform="rotate(135 526 476)" />
<rect x="1388.0" y="840" width="12" height="2" fill="#bae6fd" opacity="0.46" transform="rotate(0 1394 841)" /><rect x="1388.0" y="840" width="12" height="2" fill="#bae6fd" opacity="0.46" transform="rotate(45 1394 841)" /><rect x="1388.0" y="840" width="12" height="2" fill="#bae6fd" opacity="0.46" transform="rotate(90 1394 841)" /><rect x="1388.0" y="840" width="12" height="2" fill="#bae6fd" opacity="0.46" transform="rotate(135 1394 841)" />
<rect x="1891.5" y="207" width="21" height="2" fill="#e0f2fe" opacity="0.27" transform="rotate(0 1902 208)" /><rect x="1891.5" y="207" width="21" height="2" fill="#e0f2fe" opacity="0.27" transform="rotate(45 1902 208)" /><rect x="1891.5" y="207" width="21" height="2" fill="#e0f2fe" opacity="0.27" transform="rotate(90 1902 208)" /><rect x="1891.5" y="207" width="21" height="2" fill="#e0f2fe" opacity="0.27" transform="rotate(135 1902 208)" />
<rect x="804.0" y="411" width="14" height="2" fill="#e0f2fe" opacity="0.35" transform="rotate(0 811 412)" /><rect x="804.0" y="411" width="14" height="2" fill="#e0f2fe" opacity="0.35" transform="rotate(45 811 412)" /><rect x="804.0" y="411" width="14" height="2" fill="#e0f2fe" opacity="0.35" transform="rotate(90 811 412)" /><rect x="804.0" y="411" width="14" height="2" fill="#e0f2fe" opacity="0.35" transform="rotate(135 811 412)" />
<rect x="75.0" y="215" width="18" height="2" fill="#ffffff" opacity="0.28" transform="rotate(0 84 216)" /><rect x="75.0" y="215" width="18" height="2" fill="#ffffff" opacity="0.28" transform="rotate(45 84 216)" /><rect x="75.0" y="215" width="18" height="2" fill="#ffffff" opacity="0.28" transform="rotate(90 84 216)" /><rect x="75.0" y="215" width="18" height="2" fill="#ffffff" opacity="0.28" transform="rotate(135 84 216)" />
<rect x="488.0" y="985" width="20" height="2" fill="#e0f2fe" opacity="0.43" transform="rotate(0 498 986)" /><rect x="488.0" y="985" width="20" height="2" fill="#e0f2fe" opacity="0.43" transform="rotate(45 498 986)" /><rect x="488.0" y="985" width="20" height="2" fill="#e0f2fe" opacity="0.43" transform="rotate(90 498 986)" /><rect x="488.0" y="985" width="20" height="2" fill="#e0f2fe" opacity="0.43" transform="rotate(135 498 986)" />
<rect x="476.0" y="133" width="24" height="2" fill="#e0f2fe" opacity="0.21" transform="rotate(0 488 134)" /><rect x="476.0" y="133" width="24" height="2" fill="#e0f2fe" opacity="0.21" transform="rotate(45 488 134)" /><rect x="476.0" y="133" width="24" height="2" fill="#e0f2fe" opacity="0.21" transform="rotate(90 488 134)" /><rect x="476.0" y="133" width="24" height="2" fill="#e0f2fe" opacity="0.21" transform="rotate(135 488 134)" />
<rect x="1647.5" y="937" width="13" height="2" fill="#bae6fd" opacity="0.46" transform="rotate(0 1654 938)" /><rect x="1647.5" y="937" width="13" height="2" fill="#bae6fd" opacity="0.46" transform="rotate(45 1654 938)" /><rect x="1647.5" y="937" width="13" height="2" fill="#bae6fd" opacity="0.46" transform="rotate(90 1654 938)" /><rect x="1647.5" y="937" width="13" height="2" fill="#bae6fd" opacity="0.46" transform="rotate(135 1654 938)" />
<rect x="82.0" y="761" width="16" height="2" fill="#bae6fd" opacity="0.45" transform="rotate(0 90 762)" /><rect x="82.0" y="761" width="16" height="2" fill="#bae6fd" opacity="0.45" transform="rotate(45 90 762)" /><rect x="82.0" y="761" width="16" height="2" fill="#bae6fd" opacity="0.45" transform="rotate(90 90 762)" /><rect x="82.0" y="761" width="16" height="2" fill="#bae6fd" opacity="0.45" transform="rotate(135 90 762)" />
<rect x="548.5" y="227" width="25" height="2" fill="#e0f2fe" opacity="0.24" transform="rotate(0 561 228)" /><rect x="548.5" y="227" width="25" height="2" fill="#e0f2fe" opacity="0.24" transform="rotate(45 561 228)" /><rect x="548.5" y="227" width="25" height="2" fill="#e0f2fe" opacity="0.24" transform="rotate(90 561 228)" /><rect x="548.5" y="227" width="25" height="2" fill="#e0f2fe" opacity="0.24" transform="rotate(135 561 228)" />
<rect x="988.5" y="555" width="11" height="2" fill="#bae6fd" opacity="0.44" transform="rotate(0 994 556)" /><rect x="988.5" y="555" width="11" height="2" fill="#bae6fd" opacity="0.44" transform="rotate(45 994 556)" /><rect x="988.5" y="555" width="11" height="2" fill="#bae6fd" opacity="0.44" transform="rotate(90 994 556)" /><rect x="988.5" y="555" width="11" height="2" fill="#bae6fd" opacity="0.44" transform="rotate(135 994 556)" />
<rect x="730.5" y="908" width="17" height="2" fill="#e0f2fe" opacity="0.21" transform="rotate(0 739 909)" /><rect x="730.5" y="908" width="17" height="2" fill="#e0f2fe" opacity="0.21" transform="rotate(45 739 909)" /><rect x="730.5" y="908" width="17" height="2" fill="#e0f2fe" opacity="0.21" transform="rotate(90 739 909)" /><rect x="730.5" y="908" width="17" height="2" fill="#e0f2fe" opacity="0.21" transform="rotate(135 739 909)" />
<rect x="298.0" y="1004" width="14" height="2" fill="#ffffff" opacity="0.28" transform="rotate(0 305 1005)" /><rect x="298.0" y="1004" width="14" height="2" fill="#ffffff" opacity="0.28" transform="rotate(45 305 1005)" /><rect x="298.0" y="1004" width="14" height="2" fill="#ffffff" opacity="0.28" transform="rotate(90 305 1005)" /><rect x="298.0" y="1004" width="14" height="2" fill="#ffffff" opacity="0.28" transform="rotate(135 305 1005)" />
<rect x="1314.5" y="800" width="11" height="2" fill="#bae6fd" opacity="0.32" transform="rotate(0 1320 801)" /><rect x="1314.5" y="800" width="11" height="2" fill="#bae6fd" opacity="0.32" transform="rotate(45 1320 801)" /><rect x="1314.5" y="800" width="11" height="2" fill="#bae6fd" opacity="0.32" transform="rotate(90 1320 801)" /><rect x="1314.5" y="800" width="11" height="2" fill="#bae6fd" opacity="0.32" transform="rotate(135 1320 801)" />
<rect x="833.0" y="815" width="18" height="2" fill="#ffffff" opacity="0.46" transform="rotate(0 842 816)" /><rect x="833.0" y="815" width="18" height="2" fill="#ffffff" opacity="0.46" transform="rotate(45 842 816)" /><rect x="833.0" y="815" width="18" height="2" fill="#ffffff" opacity="0.46" transform="rotate(90 842 816)" /><rect x="833.0" y="815" width="18" height="2" fill="#ffffff" opacity="0.46" transform="rotate(135 842 816)" />
<rect x="251.5" y="1009" width="29" height="2" fill="#e0f2fe" opacity="0.34" transform="rotate(0 266 1010)" /><rect x="251.5" y="1009" width="29" height="2" fill="#e0f2fe" opacity="0.34" transform="rotate(45 266 1010)" /><rect x="251.5" y="1009" width="29" height="2" fill="#e0f2fe" opacity="0.34" transform="rotate(90 266 1010)" /><rect x="251.5" y="1009" width="29" height="2" fill="#e0f2fe" opacity="0.34" transform="rotate(135 266 1010)" />
<rect x="862.5" y="30" width="11" height="2" fill="#bae6fd" opacity="0.25" transform="rotate(0 868 31)" /><rect x="862.5" y="30" width="11" height="2" fill="#bae6fd" opacity="0.25" transform="rotate(45 868 31)" /><rect x="862.5" y="30" width="11" height="2" fill="#bae6fd" opacity="0.25" transform="rotate(90 868 31)" /><rect x="862.5" y="30" width="11" height="2" fill="#bae6fd" opacity="0.25" transform="rotate(135 868 31)" /></svg>