<svg xmlns="http://www.w3.org/2000/svg" viewBox="0 0 1920 1080" width="1920" height="1080" preserveAspectRatio="xMidYMid slice"><polygon points="919,584 860.0,702 978.0,702" fill="#10b981" opacity="0.30" />
<polygon points="1163,858 1132.5,919 1193.5,919" fill="#d1fae5" opacity="0.24" />
<polygon points="740,953 689.5,1054 790.5,1054" fill="#059669" opacity="0.27" />
<polygon points="742,504 709.5,569 774.5,569" fill="#059669" opacity="0.14" />
<polygon points="1752,965 1710.5,1048 1793.5,1048" fill="#d1fae5" opacity="0.19" />
<polygon points="179,773 141.5,848 216.5,848" fill="#059669" opacity="0.26" />
<polygon points="1228,524 1179.5,621 1276.5,621" fill="#d1fae5" opacity="0.19" />
<polygon points="484,769 458.0,821 510.0,821" fill="#10b981" opacity="0.17" />
<polygon points="1753,806 1723.0,866 1783.0,866" fill="#059669" opacity="0.15" />
<polygon points="703,876 640.5,1001 765.5,1001" fill="#059669" opacity="0.19" />
<polygon points="806,782 780.5,833 831.5,833" fill="#d1fae5" opacity="0.18" />
<polygon points="636,610 605.0,672 667.0,672" fill="#10b981" opacity="0.22" />
<polygon points="378,568 352.5,619 403.5,619" fill="#34d399" opacity="0.22" />
<polygon points="688,890 641.0,984 735.0,984" fill="#059669" opacity="0.17" />
<polygon points="1545,790 1484.0,912 1606.0,912" fill="#059669" opacity="0.20" />
<circle cx="1488" cy="394" r="5" fill="#d1fae5" opacity="0.26" />
<circle cx="165" cy="813" r="4" fill="#059669" opacity="0.29" />
<circle cx="1109" cy="643" r="5" fill="#10b981" opacity="0.32" />
<circle cx="1316" cy="563" r="3" fill="#059669" opacity="0.28" />
<circle cx="819" cy="1010" r="4" fill="#d1fae5" opacity="0.38" />
<circle cx="1315" cy="252" r="3" fill="#34d399" opacity="0.20" />
<circle cx="1840" cy="571" r="5" fill="#d1fae5" opacity="0.22" />
<circle cx="1463" cy="58" r="4" fill="#059669" opacity="0.39" />
<circle cx="452" cy="656" r="6" fill="#059669" opacity="0.39" />
<circle cx="1298" cy="866" r="8" fill="#34d399" opacity="0.23" />
<circle cx="41" cy="797" r="6" fill="#d1fae5" opacity="0.38" />
<circle cx="27" cy="522" r="4" fill="#34d399" opacity="0.40" />
<circle cx="1068" cy="198" r="3" fill="#10b981" opacity="0.20" />
<circle cx="1268" cy="1027" r="7" fill="#10b981" opacity="0.36" />
<circle cx="1172" cy="422" r="7" fill="#34d399" opacity="0.28" />
<circle cx="216" cy="798" r="6" fill="#059669" opacity="0.22" />
<circle cx="443" cy="987" r="6" fill="#059669" opacity="0.35" />
<circle cx="1415" cy="835" r="4" fill="#d1fae5" opacity="0.21" />
<circle cx="1024" cy="600" r="3" fill="#059669" opacity="0.23" />
<circle cx="1421" cy="176" r="3" fill="#34d399" opacity="0.39" />
<circle cx="1772" cy="661" r="7" fill="#059669" opacity="0.40" />
<circle cx="808" cy="764" r="7" fill="#34d399" opacity="0.30" />
<circle cx="855" cy="170" r="8" fill="#d1fae5" opacity="0.37" />
<circle cx="979" cy="36" r="8" fill="#34d399" opacity="0.34" />
<circle cx="1576" cy="914" r="3" fill="#34d399" opacity="0.27" />
<circle cx="99" cy="222" r="6" fill="#059669" opacity="0.28" />
<circle cx="1585" cy="938" r="7" fill="#059669" opacity="0.20" />
<circle cx="736" cy="546" r="3" fill="#10b981" opacity="0.27" />
<circle cx="53" cy="107" r="6" fill="#10b981" opacity="0.20" />
<circle cx="84" cy="244" r="6" fill="#34d399" opacity="0.30" /></svg>